<?xml version="1.0" ?><svg id="Layer_1" style="enable-background:new 0 0 512 512;" version="1.1" viewBox="0 0 512 512" xml:space="preserve" xmlns="http://www.w3.org/2000/svg" xmlns:xlink="http://www.w3.org/1999/xlink"><style type="text/css">
	.st0{fill:#BB0D48;}
	.st1{fill:#5CB8CD;}
	.st2{fill:#00AABC;}
	.st3{fill:#152D39;}
	.st4{fill:#FB8A52;}
	.st5{fill:#F77237;}
	.st6{fill:#071C23;}
	.st7{fill:#960C41;}
	.st8{fill:#DEE2E2;}
</style><g id="XMLID_3426_"><g id="XMLID_3427_"><path class="st0" d="M256,255.5v0.5C589.3,617,589.3-105.6,256,255.5z" id="XMLID_3428_"/><path class="st1" d="M256.5,256H256C-105,589.3,617.6,589.3,256.5,256z" id="XMLID_3429_"/><path class="st2" d="M256.3,486c-18.5,0-36.6-4.1-51-11.5c-10.1-5.2-23.4-14.8-29.7-30.9    c-6.8-17.4-4.4-39,7.1-64.3c13.3-29.1,38-61.3,73.6-96c35.6,34.7,60.3,66.9,73.6,96c11.5,25.2,13.9,46.9,7.1,64.3    c-6.3,16.1-19.6,25.7-29.7,30.9C292.9,481.9,274.8,486,256.3,486z" id="XMLID_3432_"/><path class="st3" d="M256,256.5l0-0.5C-77.3-105-77.3,617.6,256,256.5z" id="XMLID_3433_"/><path class="st4" d="M255.5,256h0.5C617-77.3-105.6-77.3,255.5,256z" id="XMLID_3434_"/><path class="st5" d="M255.7,228.7c-35.6-34.7-60.3-66.9-73.6-96c-11.5-25.2-13.9-46.9-7.1-64.3    c6.3-16.1,19.6-25.7,29.7-30.9c14.3-7.4,32.4-11.5,51-11.5c18.5,0,36.6,4.1,51,11.5c10.1,5.2,23.4,14.8,29.7,30.9    c6.8,17.4,4.4,39-7.1,64.3C316,161.8,291.3,194,255.7,228.7z" id="XMLID_3437_"/><path class="st6" d="M26,256.3c0-18.5,4.1-36.6,11.5-51c5.2-10.1,14.8-23.4,30.9-29.7c17.4-6.8,39-4.4,64.3,7.1    c29.1,13.3,61.3,38,96,73.6c-34.7,35.6-66.9,60.3-96,73.6c-25.2,11.5-46.9,13.9-64.3,7.1c-16.1-6.3-25.7-19.6-30.9-29.7    C30.1,292.9,26,274.8,26,256.3z" id="XMLID_847_"/><path class="st7" d="M283.3,255.7c34.7-35.6,66.9-60.3,96-73.6c25.2-11.5,46.9-13.9,64.3-7.1    c16.1,6.3,25.7,19.6,30.9,29.7c7.4,14.3,11.5,32.4,11.5,51c0,18.5-4.1,36.6-11.5,51c-5.2,10.1-14.8,23.4-30.9,29.7    c-17.4,6.8-39,4.4-64.3-7.1C350.2,316,318,291.3,283.3,255.7z" id="XMLID_832_"/></g><g id="XMLID_3438_"><path class="st8" d="M261.3,110.6h-13.2l-3.1,9h-4.8l12.6-35h4.1l12.4,35h-4.8L261.3,110.6z M249.5,106.6h10.5    l-5.1-15h-0.1L249.5,106.6z" id="XMLID_3441_"/><path class="st8" d="M267.4,416l0,0.1c0.1,3.2-1.1,5.9-3.4,8c-2.3,2.1-5.4,3.2-9.1,3.2c-3.8,0-7-1.4-9.4-4.1    c-2.4-2.7-3.6-6.2-3.6-10.4v-6.1c0-4.2,1.2-7.7,3.6-10.4c2.4-2.7,5.6-4.1,9.4-4.1c3.8,0,6.9,1,9.2,3.1c2.3,2,3.4,4.8,3.3,8.1    l0,0.1H263c0-2.4-0.7-4.3-2.1-5.7c-1.4-1.4-3.4-2.1-5.9-2.1c-2.6,0-4.6,1-6.1,3.1c-1.5,2.1-2.3,4.6-2.3,7.7v6.1    c0,3.1,0.8,5.7,2.3,7.8c1.5,2.1,3.6,3.1,6.1,3.1c2.6,0,4.5-0.7,5.9-2.1c1.4-1.4,2.1-3.3,2.1-5.7H267.4z" id="XMLID_3444_"/><path class="st8" d="M397.3,268.9v-35h11.4c3.7,0,6.5,0.8,8.6,2.4c2.1,1.6,3.1,3.9,3.1,7.1    c0,1.5-0.5,2.9-1.4,4.1c-0.9,1.2-2.2,2.1-3.7,2.7c2.3,0.3,4.1,1.3,5.4,3c1.3,1.7,2,3.6,2,5.9c0,3.2-1,5.7-3.1,7.3    c-2.1,1.7-4.9,2.5-8.5,2.5H397.3z M402,248.8h7.7c1.8,0,3.2-0.5,4.3-1.5c1.1-1,1.7-2.3,1.7-4.1c0-1.9-0.6-3.3-1.8-4.2    c-1.2-0.9-2.9-1.4-5.2-1.4H402V248.8z M402,252.5v12.7h9.1c2.2,0,3.8-0.5,5-1.6c1.2-1.1,1.8-2.6,1.8-4.5c0-1.9-0.6-3.5-1.8-4.7    c-1.2-1.2-2.9-1.8-4.9-1.9h-0.3H402z" id="XMLID_3446_"/><path class="st8" d="M89.2,268.9v-35h11c4.6,0,8.2,1.4,11,4.2c2.8,2.8,4.2,6.4,4.2,10.9v4.8    c0,4.5-1.4,8.1-4.2,10.9c-2.8,2.8-6.5,4.2-11,4.2H89.2z M94,237.6v27.6h6.3c3.2,0,5.8-1.1,7.7-3.2c1.9-2.1,2.8-4.9,2.8-8.2V249    c0-3.3-0.9-6-2.8-8.1c-1.9-2.1-4.4-3.2-7.7-3.2H94z" id="XMLID_3450_"/></g></g></svg>