<?xml version="1.0" standalone="no"?><!-- Generator: Gravit.io --><svg xmlns="http://www.w3.org/2000/svg" xmlns:xlink="http://www.w3.org/1999/xlink" style="isolation:isolate" viewBox="0 0 208.92 216.408" width="208.92" height="216.408"><defs><clipPath id="_clipPath_4rFvDmKw2hfal8apXbWGGT9NNiwIVfLG"><rect width="208.92" height="216.408"/></clipPath></defs><g clip-path="url(#_clipPath_4rFvDmKw2hfal8apXbWGGT9NNiwIVfLG)"><rect width="208.92" height="216.408" style="fill:rgb(232,232,232)"/><g><path d=" M 42.253 179.49 C 46.158 179.49 48.745 177.18 48.745 173.719 C 48.745 166.352 37.997 168.226 37.997 163.328 C 37.997 161.177 39.427 159.906 41.895 159.906 C 44.523 159.906 46.038 161.455 46.038 164.043 L 48.388 164.043 C 48.388 160.184 45.8 157.636 41.895 157.636 C 38.116 157.636 35.608 159.866 35.608 163.248 C 35.608 170.416 46.356 168.543 46.356 173.639 C 46.356 175.87 44.841 177.18 42.253 177.18 C 39.387 177.18 37.673 175.552 37.673 172.806 L 35.323 172.806 C 35.323 176.823 38.116 179.49 42.253 179.49 Z  M 60.487 157.636 C 57.939 157.636 56.152 158.867 55.073 160.74 L 55.073 150.349 L 52.723 150.349 L 52.723 179.014 L 55.073 179.014 L 55.073 166.392 C 55.073 162.295 56.985 159.866 59.891 159.866 C 62.519 159.866 63.756 161.772 63.756 166.591 L 63.756 179.014 L 66.099 179.014 L 66.099 166.392 C 66.099 160.263 64.074 157.636 60.487 157.636 Z  M 77.251 157.636 C 73.386 157.636 70.798 159.985 70.639 163.566 L 72.989 163.566 C 73.148 161.256 74.783 159.906 77.172 159.906 C 79.879 159.906 81.308 161.534 81.308 164.599 L 81.308 166.829 L 77.172 166.829 C 72.592 166.829 70.004 169.059 70.004 173.083 C 70.004 177.141 72.79 179.49 76.616 179.49 C 78.879 179.49 80.475 178.458 81.428 177.061 L 81.626 179.014 L 83.658 179.014 L 83.658 164.559 C 83.658 160.303 81.229 157.636 77.251 157.636 Z  M 76.973 177.18 C 74.266 177.18 72.393 175.87 72.393 173.123 C 72.393 170.456 74.028 169.02 77.092 169.02 L 81.308 169.02 L 81.308 173.123 C 81.308 175.512 79.641 177.18 76.973 177.18 Z  M 89.032 179.014 L 91.382 179.014 L 91.382 150.23 L 89.032 150.23 L 89.032 179.014 Z  M 102.891 157.636 C 99.026 157.636 96.438 159.985 96.28 163.566 L 98.629 163.566 C 98.788 161.256 100.423 159.906 102.812 159.906 C 105.519 159.906 106.949 161.534 106.949 164.599 L 106.949 166.829 L 102.812 166.829 C 98.232 166.829 95.644 169.059 95.644 173.083 C 95.644 177.141 98.431 179.49 102.249 179.49 C 104.52 179.49 106.115 178.458 107.068 177.061 L 107.266 179.014 L 109.298 179.014 L 109.298 164.559 C 109.298 160.303 106.869 157.636 102.891 157.636 Z  M 102.613 177.18 C 99.906 177.18 98.033 175.87 98.033 173.123 C 98.033 170.456 99.662 169.02 102.733 169.02 L 106.949 169.02 L 106.949 173.123 C 106.949 175.512 105.281 177.18 102.613 177.18 Z  M 132.906 157.636 C 129.921 157.636 128.055 159.264 127.095 161.653 C 126.222 158.907 124.428 157.636 122.078 157.636 C 119.57 157.636 117.862 158.907 116.863 160.819 L 116.506 158.112 L 114.553 158.112 L 114.553 179.014 L 116.903 179.014 L 116.903 166.352 C 116.903 162.295 118.776 159.866 121.562 159.866 C 123.872 159.866 125.262 161.534 125.262 165.916 L 125.262 179.014 L 127.612 179.014 L 127.612 166.352 C 127.612 162.295 129.564 159.866 132.39 159.866 C 134.66 159.866 135.977 161.534 135.977 165.916 L 135.977 179.014 L 138.32 179.014 L 138.32 165.717 C 138.32 160.184 136.136 157.636 132.906 157.636 Z  M 149.79 179.49 C 153.973 179.49 156.759 176.823 156.759 171.925 L 156.759 165.201 C 156.759 160.303 153.973 157.636 149.79 157.636 C 145.607 157.636 142.821 160.303 142.821 165.201 L 142.821 171.925 C 142.821 176.823 145.607 179.49 149.79 179.49 Z  M 149.79 177.18 C 146.964 177.18 145.21 175.552 145.21 171.925 L 145.21 165.201 C 145.21 161.574 146.964 159.946 149.79 159.946 C 152.616 159.946 154.37 161.574 154.37 165.201 L 154.37 171.925 C 154.37 175.552 152.616 177.18 149.79 177.18 Z  M 171.128 158.112 L 167.826 170.337 C 167.389 172.044 166.753 174.791 166.469 175.949 L 166.31 175.949 C 166.032 174.791 165.397 172.044 164.96 170.337 L 161.657 158.112 L 159.188 158.112 L 165.119 179.014 L 167.667 179.014 L 173.597 158.112 L 171.128 158.112 Z " fill="rgb(0,0,0)"/></g><g><path d=" M 91.466 61.686 C 92.095 55.183 97.58 50.084 104.247 50.084 C 111.324 50.084 117.069 55.829 117.069 62.906 C 117.069 69.983 111.324 75.729 104.247 75.729 C 97.17 75.729 91.425 69.983 91.425 62.906 C 91.425 62.496 91.444 62.091 91.466 61.686" fill="rgb(16,91,99)"/><path d=" M 126.96 41.158 C 131.897 44.713 133.908 50.371 131.449 53.786 C 128.99 57.2 122.986 57.086 118.05 53.532 C 113.114 49.977 111.103 44.319 113.561 40.904 C 116.02 37.49 122.024 37.604 126.96 41.158 Z " fill="rgb(16,91,99)"/><path d=" M 132.811 43.074 C 136.139 45.344 139.807 45.768 141.004 44.015 C 142.204 42.261 140.482 38.992 137.16 36.719 C 133.83 34.446 130.164 34.025 128.961 35.779 C 127.764 37.532 129.486 40.799 132.811 43.074 Z " fill="rgb(16,91,99)"/><path d=" M 103.427 37.532 C 108.414 37.599 112.488 35.521 112.524 32.896 C 112.559 30.264 108.546 28.071 103.562 28.002 C 98.571 27.936 94.501 30.012 94.461 32.645 C 94.43 35.271 98.441 37.465 103.427 37.532 Z " fill="rgb(16,91,99)"/><path d=" M 87.083 55.425 C 88.179 54.993 89.271 54.395 90.316 53.643 C 95.258 50.083 97.266 44.432 94.806 41.013 C 92.343 37.595 86.343 37.711 81.405 41.268 C 76.464 44.821 74.455 50.477 76.917 53.896 C 78.857 56.59 82.997 57.088 87.083 55.425" fill="rgb(16,91,99)"/><path d=" M 75.803 43.433 C 79.129 41.158 80.851 37.892 79.654 36.138 C 78.45 34.384 74.784 34.806 71.458 37.078 C 68.133 39.352 66.411 42.619 67.612 44.375 C 68.809 46.127 72.476 45.704 75.803 43.433 Z " fill="rgb(16,91,99)"/><circle vector-effect="non-scaling-stroke" cx="83.24024338268967" cy="83.91312574463042" r="12.82301648040152" fill="rgb(16,91,99)"/><path d=" M 73.866 97.715 C 77.421 102.651 77.535 108.655 74.12 111.115 C 70.705 113.574 65.047 111.562 61.492 106.626 C 57.937 101.689 57.823 95.685 61.238 93.226 C 64.653 90.767 70.311 92.778 73.866 97.715 Z " fill="rgb(16,91,99)"/><path d=" M 56.198 108.545 C 54.443 109.747 54.863 113.413 57.137 116.742 C 59.41 120.065 62.677 121.787 64.432 120.587 C 66.184 119.39 65.762 115.722 63.491 112.394 C 61.216 109.068 57.949 107.348 56.198 108.545 Z " fill="rgb(16,91,99)"/><path d=" M 57.866 83.093 C 57.798 78.106 55.604 74.095 52.98 74.127 C 50.345 74.168 48.269 78.238 48.337 83.228 C 48.405 88.212 50.599 92.225 53.231 92.191 C 55.856 92.154 57.934 88.08 57.866 83.093 Z " fill="rgb(16,91,99)"/><path d=" M 61.347 74.472 C 64.767 76.932 70.417 74.923 73.978 69.982 C 77.532 65.043 77.648 59.042 74.23 56.583 C 70.81 54.122 65.156 56.13 61.602 61.071 C 58.044 66.01 57.93 72.009 61.347 74.472 Z " fill="rgb(16,91,99)"/><path d=" M 63.768 55.469 C 66.037 52.142 66.461 48.474 64.708 47.277 C 62.953 46.078 59.685 47.799 57.413 51.123 C 55.14 54.45 54.718 58.117 56.473 59.319 C 58.224 60.516 61.492 58.796 63.768 55.469 Z " fill="rgb(16,91,99)"/><path d=" M 113.738 114.411 C 118.744 109.404 118.748 101.283 113.742 96.275 C 108.734 91.267 100.611 91.27 95.603 96.277 C 90.595 101.285 90.597 109.404 95.605 114.412 C 100.613 119.419 108.73 119.419 113.738 114.411 Z " fill="rgb(16,91,99)"/><path d=" M 81.958 127.092 C 77.022 123.537 75.011 117.878 77.47 114.463 C 79.93 111.049 85.934 111.163 90.871 114.719 C 95.807 118.274 97.818 123.933 95.358 127.348 C 92.899 130.762 86.894 130.648 81.958 127.092 Z " fill="rgb(16,91,99)"/><path d=" M 76.19 125.093 C 72.862 122.822 69.194 122.399 67.997 124.151 C 66.797 125.906 68.519 129.175 71.843 131.448 C 75.171 133.721 78.837 134.142 80.04 132.388 C 81.237 130.635 79.515 127.368 76.19 125.093 Z " fill="rgb(16,91,99)"/><path d=" M 105.49 130.718 C 100.504 130.651 96.429 132.729 96.394 135.355 C 96.359 137.985 100.372 140.179 105.356 140.248 C 110.347 140.314 114.415 138.239 114.456 135.605 C 114.489 132.979 110.477 130.786 105.49 130.718 Z " fill="rgb(16,91,99)"/><path d=" M 132.001 114.354 C 129.541 110.936 123.54 111.052 118.601 114.608 C 113.661 118.166 111.652 123.818 114.114 127.237 C 116.576 130.654 122.573 130.54 127.513 126.981 C 132.455 123.429 134.463 117.773 132.001 114.354 Z " fill="rgb(16,91,99)"/><path d=" M 133.059 124.761 C 129.732 127.036 128.014 130.304 129.211 132.056 C 130.412 133.811 134.079 133.389 137.406 131.116 C 140.73 128.843 142.45 125.575 141.251 123.82 C 140.055 122.068 136.387 122.491 133.059 124.761 Z " fill="rgb(16,91,99)"/><circle vector-effect="non-scaling-stroke" cx="125.67817146615326" cy="84.33625765851767" r="12.82306415313085" fill="rgb(16,91,99)"/><path d=" M 147.425 61.624 C 143.873 56.682 138.217 54.674 134.799 57.135 C 131.381 59.595 131.495 65.595 135.052 70.536 C 138.61 75.474 144.264 77.485 147.682 75.023 C 151.1 72.562 150.984 66.563 147.425 61.624 Z " fill="rgb(16,91,99)"/><path d=" M 152.805 59.623 C 154.56 58.42 154.138 54.753 151.864 51.425 C 149.591 48.102 146.323 46.381 144.568 47.58 C 142.817 48.777 143.24 52.445 145.51 55.773 C 147.785 59.099 151.052 60.818 152.805 59.623 Z " fill="rgb(16,91,99)"/><path d=" M 155.689 76.06 C 153.064 76.095 150.986 80.17 151.052 85.156 C 151.118 90.144 153.314 94.155 155.939 94.122 C 158.573 94.082 160.649 90.013 160.583 85.021 C 160.513 80.038 158.32 76.025 155.689 76.06 Z " fill="rgb(16,91,99)"/><path d=" M 134.689 111.667 C 138.107 114.128 143.763 112.12 147.315 107.178 C 150.872 102.239 150.99 96.241 147.572 93.779 C 144.152 91.318 138.5 93.327 134.942 98.268 C 131.386 103.207 131.271 109.208 134.689 111.667 Z " fill="rgb(16,91,99)"/><path d=" M 145.095 112.726 C 142.825 116.052 142.402 119.721 144.154 120.918 C 145.909 122.117 149.178 120.396 151.45 117.071 C 153.723 113.745 154.145 110.078 152.39 108.876 C 150.637 107.679 147.37 109.399 145.095 112.726 Z " fill="rgb(16,91,99)"/></g></g></svg>